<?xml version="1.0" encoding="UTF-8"?><svg id="Calque_1" xmlns="http://www.w3.org/2000/svg" viewBox="0 0 466.19 457.02"><defs><style>.cls-1{fill:#0b7081;}.cls-1,.cls-2,.cls-3,.cls-4,.cls-5,.cls-6,.cls-7,.cls-8,.cls-9,.cls-10,.cls-11,.cls-12,.cls-13,.cls-14,.cls-15,.cls-16,.cls-17,.cls-18,.cls-19,.cls-20,.cls-21,.cls-22,.cls-23,.cls-24,.cls-25,.cls-26,.cls-27,.cls-28,.cls-29,.cls-30,.cls-31,.cls-32,.cls-33,.cls-34,.cls-35,.cls-36,.cls-37,.cls-38,.cls-39,.cls-40,.cls-41,.cls-42,.cls-43,.cls-44,.cls-45,.cls-46,.cls-47,.cls-48,.cls-49,.cls-50,.cls-51,.cls-52,.cls-53,.cls-54,.cls-55,.cls-56,.cls-57,.cls-58,.cls-59,.cls-60,.cls-61,.cls-62,.cls-63,.cls-64,.cls-65,.cls-66,.cls-67,.cls-68,.cls-69,.cls-70,.cls-71,.cls-72,.cls-73,.cls-74,.cls-75,.cls-76,.cls-77,.cls-78,.cls-79,.cls-80,.cls-81,.cls-82,.cls-83,.cls-84,.cls-85,.cls-86,.cls-87,.cls-88,.cls-89,.cls-90,.cls-91,.cls-92,.cls-93,.cls-94,.cls-95,.cls-96{stroke-width:0px;}.cls-2{fill:#7d124a;}.cls-3{fill:#009c88;}.cls-4{fill:#05846c;}.cls-5{fill:#7b2069;}.cls-6{fill:#8d1347;}.cls-7{fill:#de1d83;}.cls-8{fill:#0a829f;}.cls-9{fill:#075232;}.cls-10{fill:#95155d;}.cls-11{fill:#1daad8;}.cls-12{fill:#1491a1;}.cls-13{fill:#3f235b;}.cls-14{fill:#5e385a;}.cls-15{fill:#53a33d;}.cls-16{fill:#462258;}.cls-17{fill:#055084;}.cls-18{fill:#007d9f;}.cls-19{fill:#178336;}.cls-20{fill:#b63e8f;}.cls-21{fill:#951c73;}.cls-22{fill:#009883;}.cls-23{fill:#00486c;}.cls-24{fill:#2a2f73;}.cls-25{fill:#49a540;}.cls-26{fill:#ae1259;}.cls-27{fill:#1f3c77;}.cls-28{fill:#184745;}.cls-29{fill:none;}.cls-30{fill:#a71543;}.cls-31{fill:#6a236f;}.cls-32{fill:#0b7487;}.cls-33{fill:#63164b;}.cls-34{fill:#7ebc58;}.cls-35{fill:#045f79;}.cls-36{fill:#95c11f;}.cls-37{fill:#007089;}.cls-38{fill:#6d226c;}.cls-39{fill:#c94f98;}.cls-40{fill:#2f7e37;}.cls-41{fill:#75ae3c;}.cls-42{fill:#3d4a50;}.cls-43{fill:#00738f;}.cls-44{fill:#b60f6e;}.cls-45{fill:#971b81;}.cls-46{fill:#56256a;}.cls-47{fill:#00757e;}.cls-48{fill:#251f4a;}.cls-49{fill:#009874;}.cls-50{fill:#1e976c;}.cls-51{fill:#9d5595;}.cls-52{fill:#411d4b;}.cls-53{fill:#9a1b79;}.cls-54{fill:#28933f;}.cls-55{fill:#03718c;}.cls-56{fill:#0b9b93;}.cls-57{fill:#6b1347;}.cls-58{fill:#8a1e82;}.cls-59{fill:#c21d68;}.cls-60{fill:#0c5c76;}.cls-61{fill:#03577f;}.cls-62{fill:#56256c;}.cls-63{fill:#851453;}.cls-64{fill:#258f3b;}.cls-65{fill:#048493;}.cls-66{fill:#b23e7c;}.cls-67{fill:#0b7894;}.cls-68{fill:#4c8d33;}.cls-69{fill:#8b1e7b;}.cls-70{fill:#90a3ad;}.cls-71{fill:#01898b;}.cls-72{fill:#fff;}.cls-73{fill:#189e90;}.cls-74{fill:#3f8e34;}.cls-75{fill:#9b186a;}.cls-76{fill:#0c9739;}.cls-77{fill:#5b7e31;}.cls-78{fill:#00a0c7;}.cls-79{fill:#4ba840;}.cls-80{fill:#0d7335;}.cls-81{fill:#1ebcef;}.cls-82{fill:#7f1b5f;}.cls-83{fill:#169fdb;}.cls-84{fill:#a1144e;}.cls-85{fill:#2e7a32;}.cls-86{fill:#359a3e;}.cls-87{fill:#044e62;}.cls-88{fill:#3c682b;}.cls-89{fill:#067594;}.cls-90{fill:#094338;}.cls-91{fill:#44133a;}.cls-92{fill:#5e8730;}.cls-93{fill:#802074;}.cls-94{fill:#4e4e5a;}.cls-95{fill:#64b130;}.cls-96{fill:#0e534c;}</style></defs><rect class="cls-70" x="0" width="466.19" height="457.02"/><rect class="cls-29" x="0" y="0" width="466.19" height="457.02"/><rect class="cls-29" x="0" y="0" width="466.19" height="457.02"/><rect class="cls-29" x="0" y="0" width="466.19" height="457.02"/><rect class="cls-29" width="466.19" height="457.02"/><path class="cls-72" d="M27.95,176.48h14.81c8.55,0,12.45-6.71,12.45-12.94s-3.9-12.94-12.45-12.94h-14.81v25.89ZM27.95,202.64h-5.99v-58.03h20.8c12.06,0,18.37,9.51,18.37,18.9,0,4.89-1.62,9.48-4.57,12.91-3.37,3.92-8.14,5.99-13.8,5.99h-14.81v20.24Z"/><polygon class="cls-72" points="106.24 202.64 100.25 202.64 100.25 176.23 71.63 176.23 71.63 202.64 65.71 202.64 65.71 144.68 71.63 144.68 71.63 170.32 100.25 170.32 100.25 144.68 106.24 144.68 106.24 202.64"/><path class="cls-72" d="M124,178.84h18.97l-9.51-24.42-9.46,24.42ZM159.03,202.64h-6.41l-7.3-17.88h-23.72l-7.23,17.88h-6.42l23.27-58.79h4.54l23.27,58.79Z"/><path class="cls-72" d="M203.8,202.64h-8.87l-25.97-23.47v-4.59h12.74c8.55,0,12.45-6.22,12.45-11.99s-3.9-11.99-12.45-11.99h-14.88v52.04h-5.92v-58.03h20.8c12.05,0,18.36,9.03,18.36,17.95s-6.31,17.95-18.36,17.95h-2.4l24.5,22.14Z"/><path class="cls-72" d="M349.66,202.71c-7.63,0-14.78-3.04-20.13-8.56-5.34-5.51-8.28-12.78-8.28-20.45s2.94-14.86,8.28-20.38c5.35-5.52,12.5-8.56,20.13-8.56s14.77,3.04,20.13,8.56c2.58,2.67,4.58,5.71,5.96,9.05l1.37,3.3h-6.44l-.62-1.44c-1.05-2.44-2.58-4.71-4.55-6.75-4.19-4.34-9.82-6.73-15.85-6.73s-11.66,2.39-15.86,6.73c-4.27,4.42-6.63,10.18-6.63,16.22s2.35,11.87,6.62,16.21c4.25,4.4,9.89,6.82,15.87,6.82s11.62-2.42,15.86-6.8c2.03-2.11,3.52-4.29,4.55-6.67l.62-1.44h6.44l-1.37,3.3c-1.36,3.29-3.43,6.41-5.96,9.04-5.36,5.53-12.5,8.57-20.13,8.57"/><polygon class="cls-72" points="405.16 202.64 376.56 202.64 376.56 196.72 387.9 196.72 387.9 150.52 376.56 150.52 376.56 144.68 405.16 144.68 405.16 150.52 393.82 150.52 393.82 196.72 405.16 196.72 405.16 202.64"/><polygon class="cls-72" points="443.81 202.64 409.51 202.64 409.51 144.68 443.65 144.68 443.65 150.59 415.5 150.59 415.5 170.62 443.04 170.62 443.04 176.62 415.5 176.62 415.5 196.72 443.81 196.72 443.81 202.64"/><polygon class="cls-72" points="261.25 144.27 271.82 144.27 245.88 202.19 235.31 202.19 261.25 144.27"/><polygon class="cls-72" points="300.12 144.27 289.55 144.27 315.49 202.19 326.06 202.19 300.12 144.27"/><polygon class="cls-72" points="208.33 146.2 208.33 202.21 218.04 202.21 218.04 167.93 208.33 146.2"/><polygon class="cls-72" points="288.65 145.41 263.22 202.19 273.79 202.19 293.93 157.23 288.65 145.41"/><polygon class="cls-72" points="272.41 178.58 272.41 146.02 262.7 167.76 262.7 200.31 272.41 178.58"/><polygon class="cls-72" points="239.62 189.38 219.42 144.27 208.85 144.27 234.35 201.2 239.62 189.38"/><path class="cls-72" d="M64.86,278.39h-8.87l-25.97-23.47v-4.58h12.73c8.55,0,12.45-6.22,12.45-11.99s-3.9-11.99-12.45-11.99h-14.88v52.04h-5.92v-58.03h20.8c12.06,0,18.36,9.03,18.36,17.95s-6.31,17.95-18.36,17.95h-2.4l24.5,22.14Z"/><path class="cls-72" d="M241.54,278.39h-8.87l-25.97-23.47v-4.58h12.74c8.55,0,12.45-6.22,12.45-11.99s-3.9-11.99-12.45-11.99h-14.88v52.04h-5.92v-58.03h20.8c12.06,0,18.36,9.03,18.36,17.95s-6.31,17.95-18.36,17.95h-2.4l24.5,22.14Z"/><path class="cls-72" d="M372.45,278.35c-7.63,0-14.78-3.04-20.13-8.56-5.34-5.51-8.28-12.78-8.28-20.45s2.94-14.86,8.28-20.38c5.35-5.52,12.5-8.56,20.13-8.56s14.77,3.04,20.13,8.56c2.58,2.67,4.59,5.71,5.96,9.04l1.37,3.3h-6.44l-.62-1.44c-1.05-2.44-2.59-4.71-4.55-6.74-4.2-4.34-9.82-6.73-15.85-6.73s-11.66,2.39-15.86,6.73c-4.28,4.42-6.63,10.18-6.63,16.22s2.35,11.87,6.62,16.21c4.25,4.4,9.89,6.82,15.87,6.82s11.62-2.42,15.86-6.8c2.03-2.11,3.52-4.29,4.55-6.67l.62-1.44h6.44l-1.37,3.31c-1.36,3.29-3.42,6.41-5.96,9.03-5.35,5.53-12.5,8.57-20.13,8.57"/><polygon class="cls-72" points="104.6 278.35 70.31 278.35 70.31 220.39 104.45 220.39 104.45 226.31 76.3 226.31 76.3 246.34 103.84 246.34 103.84 252.33 76.3 252.33 76.3 272.43 104.6 272.43 104.6 278.35"/><polygon class="cls-72" points="282.81 278.35 248.51 278.35 248.51 220.39 282.66 220.39 282.66 226.31 254.5 226.31 254.5 246.34 282.05 246.34 282.05 252.33 254.5 252.33 254.5 272.43 282.81 272.43 282.81 278.35"/><polygon class="cls-72" points="443.69 278.35 409.39 278.35 409.39 220.39 443.54 220.39 443.54 226.31 415.38 226.31 415.38 246.34 442.93 246.34 442.93 252.33 415.38 252.33 415.38 272.43 443.69 272.43 443.69 278.35"/><polygon class="cls-72" points="120.49 278.35 114.75 278.35 114.75 220.39 148.89 220.39 148.89 226.31 120.74 226.31 120.74 246.34 141.93 246.34 141.93 252.33 120.74 252.33 120.49 278.35"/><polygon class="cls-72" points="331 220.39 331 269.17 298.93 220.39 297.88 220.39 291.84 220.39 291.84 278.35 297.88 278.35 297.88 229.57 329.99 278.35 331 278.35 337.05 278.35 337.05 220.39 331 220.39"/><polygon class="cls-72" points="190.11 278.35 155.81 278.35 155.81 220.39 189.96 220.39 189.96 226.31 161.81 226.31 161.81 246.34 189.35 246.34 189.35 252.33 161.81 252.33 161.81 272.43 190.11 272.43 190.11 278.35"/><polygon class="cls-72" points="171.18 217.01 175.99 210.79 186.03 210.79 176.22 217.01 171.18 217.01"/><polygon class="cls-72" points="87.8 217.01 92.61 210.79 102.65 210.79 92.84 217.01 87.8 217.01"/><rect class="cls-93" x="440.86" y="295.51" width="3.36" height="13.65"/><rect class="cls-58" x="438.48" y="295.51" width="2.39" height="13.65"/><rect class="cls-21" x="434.15" y="295.51" width="3.36" height="13.65"/><rect class="cls-21" x="437.5" y="295.51" width=".97" height="13.65"/><rect class="cls-46" x="343.35" y="295.51" width="1.61" height="13.65"/><rect class="cls-46" x="351.14" y="295.51" width="4.14" height="13.65"/><rect class="cls-1" x="323.52" y="295.51" width="1.32" height="13.65"/><rect class="cls-90" x="333.88" y="295.51" width="1.08" height="13.65"/><rect class="cls-96" x="322.43" y="295.51" width=".65" height="13.65"/><rect class="cls-96" x="323.07" y="295.51" width=".45" height="13.65"/><rect class="cls-9" x="321.33" y="295.51" width="1.1" height="13.65"/><rect class="cls-80" x="318.8" y="295.51" width="2.52" height="13.65"/><rect class="cls-34" x="315.95" y="295.51" width=".54" height="13.65"/><rect class="cls-34" x="316.22" y="295.51" width="3.13" height="13.65"/><rect class="cls-36" x="296.16" y="295.51" width="14.94" height="13.65"/><rect class="cls-60" x="325.27" y="295.51" width=".55" height="13.65"/><rect class="cls-60" x="324.84" y="295.51" width=".43" height="13.65"/><rect class="cls-44" x="371.86" y="295.51" width="1.51" height="13.65"/><rect class="cls-44" x="380.83" y="295.51" width="2.04" height="13.65"/><rect class="cls-44" x="373.37" y="295.51" width="2.57" height="13.65"/><rect class="cls-6" x="403.82" y="295.51" width="1.79" height="13.65"/><rect class="cls-63" x="405.68" y="295.51" width="1.79" height="13.65"/><rect class="cls-63" x="405.6" y="295.51" width=".08" height="13.65"/><rect class="cls-10" x="407.47" y="295.51" width="1.86" height="13.65"/><rect class="cls-26" x="408.85" y="295.51" width="1.86" height="13.65"/><rect class="cls-7" x="414.61" y="295.51" width="6.54" height="13.65"/><rect class="cls-39" x="420.08" y="295.51" width="3.22" height="13.65"/><rect class="cls-53" x="424.48" y="295.51" width="2.26" height="13.65"/><rect class="cls-2" x="426.75" y="295.51" width="1.7" height="13.65"/><rect class="cls-2" x="433.15" y="295.51" width=".55" height="13.65"/><rect class="cls-2" x="433.7" y="295.51" width=".99" height="13.65"/><rect class="cls-82" x="430.8" y="295.51" width="2.19" height="13.65"/><rect class="cls-82" x="432.99" y="295.51" width=".16" height="13.65"/><rect class="cls-20" x="423.3" y="295.51" width="1.7" height="13.65"/><rect class="cls-33" x="428.45" y="295.51" width="3.4" height="13.65"/><rect class="cls-69" x="393.86" y="295.51" width="3.82" height="13.65"/><rect class="cls-84" x="402.97" y="295.52" width=".85" height="13.65"/><rect class="cls-75" x="397.69" y="295.51" width="4.26" height="13.65"/><rect class="cls-75" x="401.95" y="295.52" width="1.02" height="13.65"/><rect class="cls-45" x="392.56" y="295.52" width=".94" height="13.65"/><rect class="cls-45" x="393.5" y="295.52" width=".36" height="13.65"/><rect class="cls-45" x="391.62" y="295.51" width=".94" height="13.65"/><rect class="cls-24" x="339.77" y="295.51" width="3.16" height="13.65"/><rect class="cls-24" x="342.93" y="295.51" width=".42" height="13.65"/><rect class="cls-7" x="382.88" y="295.51" width="2.53" height="13.65"/><polygon class="cls-51" points="391.52 295.52 391.14 295.52 390.51 295.52 390.51 309.17 391.63 309.17 391.63 295.52 391.52 295.52"/><polygon class="cls-51" points="390.18 295.52 389.8 295.52 389.56 295.52 389.56 309.17 390.51 309.17 390.51 295.52 390.18 295.52"/><rect class="cls-51" x="391.64" y="295.51" width=".46" height="13.65"/><rect class="cls-7" x="375.65" y="295.51" width="1.69" height="13.65"/><rect class="cls-31" x="363.32" y="295.51" width="1.02" height="13.65"/><rect class="cls-38" x="357.42" y="295.51" width="2.11" height="13.65"/><rect class="cls-38" x="359.53" y="295.51" width=".95" height="13.65"/><rect class="cls-91" x="356.82" y="295.51" width="1.02" height="13.65"/><rect class="cls-91" x="357.84" y="295.51" width=".19" height="13.65"/><rect class="cls-5" x="356.3" y="295.51" width="1.02" height="13.65"/><rect class="cls-16" x="355.28" y="295.51" width="1.03" height="13.65"/><rect class="cls-13" x="350.76" y="295.51" width="1.25" height="13.65"/><rect class="cls-48" x="346.07" y="295.52" width="3.9" height="13.65"/><rect class="cls-48" x="349.97" y="295.51" width=".79" height="13.65"/><rect class="cls-13" x="344.96" y="295.51" width=".83" height="13.65"/><rect class="cls-13" x="345.79" y="295.52" width=".28" height="13.65"/><rect class="cls-42" x="336.07" y="295.52" width=".13" height="13.65"/><rect class="cls-42" x="336.2" y="295.51" width=".98" height="13.65"/><rect class="cls-28" x="335.52" y="295.51" width=".28" height="13.65"/><rect class="cls-28" x="334.96" y="295.51" width=".55" height="13.65"/><rect class="cls-28" x="335.8" y="295.52" width=".27" height="13.65"/><rect class="cls-27" x="327.03" y="295.51" width="6.3" height="13.65"/><rect class="cls-27" x="333.33" y="295.51" width=".55" height="13.65"/><rect class="cls-27" x="325.82" y="295.51" width="1.21" height="13.65"/><rect class="cls-94" x="337.18" y="295.51" width=".55" height="13.65"/><rect class="cls-14" x="338.28" y="295.51" width="1.49" height="13.65"/><rect class="cls-14" x="337.73" y="295.51" width=".55" height="13.65"/><rect class="cls-52" x="368.9" y="295.51" width="2" height="13.65"/><rect class="cls-52" x="370.9" y="295.51" width=".96" height="13.65"/><rect class="cls-52" x="367.01" y="295.51" width="1.89" height="13.65"/><rect class="cls-52" x="366.09" y="295.51" width=".26" height="13.65"/><rect class="cls-52" x="366.35" y="295.51" width=".67" height="13.65"/><rect class="cls-57" x="364.35" y="295.51" width=".42" height="13.65"/><rect class="cls-62" x="361.9" y="295.51" width="1" height="13.65"/><rect class="cls-62" x="362.9" y="295.51" width=".42" height="13.65"/><rect class="cls-62" x="360.97" y="295.51" width=".94" height="13.65"/><rect class="cls-62" x="360.48" y="295.51" width=".48" height="13.65"/><rect class="cls-38" x="362.07" y="295.51" width="3.33" height="13.65"/><rect class="cls-38" x="365.41" y="295.51" width=".54" height="13.65"/><rect class="cls-38" x="365.94" y="295.51" width=".15" height="13.65"/><rect class="cls-30" x="378.35" y="295.51" width="2.49" height="13.65"/><rect class="cls-30" x="377.35" y="295.51" width="1" height="13.65"/><polygon class="cls-66" points="389.23 309.17 389.23 295.52 388.27 295.52 387.94 295.52 387.32 295.52 387.32 309.17 389.23 309.17"/><rect class="cls-66" x="389.23" y="295.51" width=".33" height="13.65"/><polygon class="cls-44" points="387.32 309.17 387.32 295.52 386.36 295.52 385.41 295.52 385.41 309.17 387.32 309.17"/><rect class="cls-25" x="281.19" y="295.52" width="10.09" height="13.65"/><rect class="cls-25" x="295.41" y="295.52" width=".76" height="13.65"/><rect class="cls-25" x="294.31" y="295.51" width=".76" height="13.65"/><rect class="cls-25" x="295.07" y="295.51" width=".34" height="13.65"/><rect class="cls-64" x="292.38" y="295.51" width=".85" height="13.65"/><rect class="cls-86" x="293.47" y="295.51" width=".84" height="13.65"/><rect class="cls-86" x="293.22" y="295.51" width=".25" height="13.65"/><rect class="cls-40" x="291.28" y="295.52" width="1.09" height="13.65"/><rect class="cls-64" x="153.95" y="295.51" width=".02" height="13.65"/><rect class="cls-64" x="153.97" y="295.51" width="6.33" height="13.65"/><rect class="cls-54" x="153.29" y="295.51" width=".22" height="13.65"/><rect class="cls-54" x="153.51" y="295.51" width=".44" height="13.65"/><rect class="cls-79" x="145.88" y="295.51" width=".5" height="13.65"/><rect class="cls-79" x="132.63" y="295.52" width="7.8" height="13.65"/><rect class="cls-79" x="147.47" y="295.52" width="5.07" height="13.65"/><rect class="cls-79" x="152.54" y="295.52" width=".76" height="13.65"/><rect class="cls-95" x="146.38" y="295.52" width="1.09" height="13.65"/><rect class="cls-95" x="161.16" y="295.52" width="1.85" height="13.65"/><rect class="cls-95" x="159.76" y="295.52" width="1.09" height="13.65"/><rect class="cls-15" x="140.43" y="295.52" width="1.09" height="13.65"/><rect class="cls-74" x="131.53" y="295.52" width=".55" height="13.65"/><rect class="cls-74" x="132.08" y="295.51" width=".55" height="13.65"/><rect class="cls-74" x="160.57" y="295.51" width=".85" height="13.65"/><rect class="cls-74" x="125.66" y="295.51" width="3.61" height="13.65"/><rect class="cls-85" x="129.82" y="295.52" width="1.71" height="13.65"/><rect class="cls-85" x="129.28" y="295.51" width=".55" height="13.65"/><rect class="cls-19" x="123.41" y="295.51" width="2.26" height="13.65"/><rect class="cls-19" x="113.03" y="295.51" width="1.13" height="13.65"/><rect class="cls-76" x="112.46" y="295.51" width=".57" height="13.65"/><rect class="cls-76" x="113.03" y="295.51" width="0" height="13.65"/><rect class="cls-68" x="122.84" y="295.52" width=".57" height="13.65"/><rect class="cls-92" x="121.15" y="295.51" width="1.13" height="13.65"/><rect class="cls-92" x="122.27" y="295.52" width=".57" height="13.65"/><rect class="cls-77" x="117.09" y="295.51" width="2.93" height="13.65"/><rect class="cls-77" x="120.01" y="295.51" width=".57" height="13.65"/><rect class="cls-77" x="120.58" y="295.51" width=".57" height="13.65"/><rect class="cls-88" x="115.29" y="295.51" width=".66" height="13.65"/><rect class="cls-88" x="114.16" y="295.51" width="1.13" height="13.65"/><rect class="cls-88" x="115.95" y="295.51" width="1.13" height="13.65"/><rect class="cls-32" x="104.8" y="295.51" width="1.56" height="13.65"/><rect class="cls-61" x="102.6" y="295.51" width="2.2" height="13.65"/><rect class="cls-23" x="102.05" y="295.51" width=".55" height="13.65"/><rect class="cls-67" x="91.59" y="295.51" width=".55" height="13.65"/><rect class="cls-22" x="86.01" y="295.51" width=".55" height="13.65"/><rect class="cls-71" x="84.91" y="295.51" width="1.1" height="13.65"/><rect class="cls-47" x="83.81" y="295.51" width="1.1" height="13.65"/><rect class="cls-89" x="87.11" y="295.51" width="3.92" height="13.65"/><rect class="cls-89" x="91.03" y="295.51" width=".55" height="13.65"/><rect class="cls-89" x="86.57" y="295.51" width=".55" height="13.65"/><rect class="cls-55" x="79.44" y="295.51" width="3.95" height="13.65"/><rect class="cls-55" x="83.39" y="295.51" width=".42" height="13.65"/><rect class="cls-37" x="43.64" y="295.51" width=".76" height="13.65"/><rect class="cls-56" x="42.44" y="295.51" width="1.2" height="13.65"/><rect class="cls-65" x="35.54" y="295.51" width=".75" height="13.65"/><rect class="cls-47" x="26.76" y="295.51" width="1.02" height="13.65"/><rect class="cls-73" x="25.99" y="295.51" width=".77" height="13.65"/><rect class="cls-50" x="22.36" y="295.51" width="3.21" height="13.65"/><rect class="cls-50" x="25.57" y="295.51" width=".42" height="13.65"/><rect class="cls-43" x="32.86" y="295.51" width="2.68" height="13.65"/><rect class="cls-89" x="27.95" y="295.51" width="4.49" height="13.65"/><rect class="cls-89" x="27.78" y="295.51" width=".17" height="13.65"/><rect class="cls-89" x="32.44" y="295.51" width=".42" height="13.65"/><rect class="cls-49" x="41.25" y="295.52" width="1.2" height="13.65"/><rect class="cls-4" x="40.05" y="295.52" width="1.2" height="13.65"/><rect class="cls-3" x="36.74" y="295.51" width="3.32" height="13.65"/><rect class="cls-3" x="36.29" y="295.51" width=".45" height="13.65"/><rect class="cls-18" x="44.84" y="295.51" width="6.11" height="13.65"/><rect class="cls-18" x="44.39" y="295.51" width=".44" height="13.65"/><rect class="cls-81" x="50.95" y="295.51" width="5.33" height="13.65"/><rect class="cls-81" x="70.81" y="295.51" width="8.22" height="13.65"/><rect class="cls-81" x="79.03" y="295.51" width=".41" height="13.65"/><rect class="cls-17" x="92.14" y="295.51" width="2.04" height="13.65"/><rect class="cls-87" x="97.49" y="295.52" width="4.01" height="13.65"/><rect class="cls-87" x="101.5" y="295.51" width=".55" height="13.65"/><rect class="cls-35" x="94.18" y="295.51" width="2.77" height="13.65"/><rect class="cls-35" x="96.95" y="295.52" width=".55" height="13.65"/><rect class="cls-12" x="107" y="295.51" width="4.9" height="13.65"/><rect class="cls-12" x="111.9" y="295.51" width=".56" height="13.65"/><rect class="cls-12" x="106.36" y="295.51" width=".64" height="13.65"/><rect class="cls-41" x="141.53" y="295.51" width="4.35" height="13.65"/><rect class="cls-64" x="167.97" y="295.52" width=".02" height="13.65"/><rect class="cls-64" x="163.38" y="295.51" width="4.59" height="13.65"/><rect class="cls-54" x="168.3" y="295.52" width=".16" height="13.65"/><rect class="cls-54" x="167.99" y="295.52" width=".32" height="13.65"/><rect class="cls-79" x="173.48" y="295.52" width=".36" height="13.65"/><rect class="cls-79" x="177.79" y="295.51" width="11.18" height="13.65"/><rect class="cls-79" x="169.01" y="295.51" width="3.67" height="13.65"/><rect class="cls-79" x="168.46" y="295.51" width=".55" height="13.65"/><rect class="cls-95" x="172.68" y="295.51" width=".79" height="13.65"/><rect class="cls-95" x="161.42" y="295.51" width="1.34" height="13.65"/><rect class="cls-95" x="162.98" y="295.51" width=".79" height="13.65"/><rect class="cls-15" x="176.99" y="295.51" width=".79" height="13.65"/><rect class="cls-74" x="162.57" y="295.52" width=".62" height="13.65"/><rect class="cls-41" x="173.84" y="295.51" width="3.16" height="13.65"/><rect class="cls-64" x="190.77" y="295.51" width=".01" height="13.65"/><rect class="cls-64" x="190.78" y="295.51" width="3.54" height="13.65"/><rect class="cls-54" x="190.4" y="295.51" width=".12" height="13.65"/><rect class="cls-54" x="190.52" y="295.51" width=".24" height="13.65"/><rect class="cls-79" x="186.26" y="295.51" width=".28" height="13.65"/><rect class="cls-79" x="178.85" y="295.52" width="4.36" height="13.65"/><rect class="cls-79" x="187.15" y="295.52" width="2.83" height="13.65"/><rect class="cls-79" x="189.98" y="295.52" width=".43" height="13.65"/><rect class="cls-95" x="186.54" y="295.52" width=".61" height="13.65"/><rect class="cls-95" x="194.8" y="295.52" width="1.03" height="13.65"/><rect class="cls-95" x="194.01" y="295.52" width=".61" height="13.65"/><rect class="cls-15" x="183.22" y="295.52" width=".61" height="13.65"/><rect class="cls-74" x="194.47" y="295.51" width=".47" height="13.65"/><rect class="cls-41" x="183.83" y="295.51" width="2.43" height="13.65"/><rect class="cls-64" x="198.61" y="295.52" width="0" height="13.65"/><rect class="cls-64" x="196.04" y="295.51" width="2.57" height="13.65"/><rect class="cls-54" x="198.79" y="295.52" width=".09" height="13.65"/><rect class="cls-54" x="198.61" y="295.52" width=".18" height="13.65"/><rect class="cls-79" x="201.68" y="295.52" width=".2" height="13.65"/><rect class="cls-79" x="204.09" y="295.51" width="6.25" height="13.65"/><rect class="cls-79" x="199.18" y="295.51" width="2.05" height="13.65"/><rect class="cls-79" x="198.88" y="295.51" width=".31" height="13.65"/><rect class="cls-95" x="201.24" y="295.51" width=".44" height="13.65"/><rect class="cls-95" x="194.94" y="295.51" width=".75" height="13.65"/><rect class="cls-95" x="195.82" y="295.51" width=".44" height="13.65"/><rect class="cls-15" x="203.65" y="295.51" width=".44" height="13.65"/><rect class="cls-74" x="195.58" y="295.52" width=".34" height="13.65"/><rect class="cls-41" x="201.88" y="295.51" width="1.76" height="13.65"/><rect class="cls-79" x="251.95" y="295.52" width="22.58" height="13.65"/><rect class="cls-15" x="274.53" y="295.52" width="1.6" height="13.65"/><rect class="cls-41" x="276.14" y="295.51" width="6.38" height="13.65"/><rect class="cls-64" x="248.28" y="295.52" width=".02" height="13.65"/><rect class="cls-64" x="241.13" y="295.51" width="7.15" height="13.65"/><rect class="cls-54" x="248.8" y="295.52" width=".25" height="13.65"/><rect class="cls-54" x="248.3" y="295.52" width=".5" height="13.65"/><rect class="cls-79" x="256.86" y="295.52" width=".56" height="13.65"/><rect class="cls-79" x="263.57" y="295.51" width="8.81" height="13.65"/><rect class="cls-79" x="249.9" y="295.51" width="5.72" height="13.65"/><rect class="cls-79" x="249.04" y="295.51" width=".86" height="13.65"/><rect class="cls-95" x="255.62" y="295.51" width="1.23" height="13.65"/><rect class="cls-95" x="238.08" y="295.51" width="2.09" height="13.65"/><rect class="cls-95" x="240.51" y="295.51" width="1.23" height="13.65"/><rect class="cls-15" x="262.33" y="295.51" width="1.23" height="13.65"/><rect class="cls-74" x="239.87" y="295.52" width=".96" height="13.65"/><rect class="cls-41" x="257.41" y="295.51" width="4.92" height="13.65"/><rect class="cls-64" x="232.46" y="295.51" width=".02" height="13.65"/><rect class="cls-64" x="232.47" y="295.51" width="5.19" height="13.65"/><rect class="cls-54" x="231.92" y="295.51" width=".18" height="13.65"/><rect class="cls-54" x="232.1" y="295.51" width=".36" height="13.65"/><rect class="cls-79" x="225.85" y="295.51" width=".41" height="13.65"/><rect class="cls-79" x="208.77" y="295.52" width="12.62" height="13.65"/><rect class="cls-79" x="227.15" y="295.52" width="4.15" height="13.65"/><rect class="cls-79" x="231.3" y="295.52" width=".62" height="13.65"/><rect class="cls-95" x="226.26" y="295.52" width=".89" height="13.65"/><rect class="cls-95" x="238.36" y="295.52" width="1.51" height="13.65"/><rect class="cls-95" x="237.21" y="295.52" width=".89" height="13.65"/><rect class="cls-15" x="221.39" y="295.52" width=".89" height="13.65"/><rect class="cls-74" x="237.87" y="295.51" width=".7" height="13.65"/><rect class="cls-41" x="222.29" y="295.51" width="3.56" height="13.65"/><rect class="cls-83" x="64.22" y="295.51" width=".97" height="13.65"/><rect class="cls-78" x="65.19" y="295.51" width="1.59" height="13.65"/><rect class="cls-81" x="62.64" y="295.51" width="1.59" height="13.65"/><rect class="cls-8" x="59.41" y="295.51" width="3.23" height="13.65"/><rect class="cls-11" x="66.78" y="295.51" width="4.03" height="13.65"/><rect class="cls-78" x="56.27" y="295.51" width="2.34" height="13.65"/><rect class="cls-78" x="58.61" y="295.51" width=".79" height="13.65"/><rect class="cls-44" x="410.72" y="295.51" width="1.86" height="13.65"/><rect class="cls-59" x="412.58" y="295.51" width="3.55" height="13.65"/><rect class="cls-41" x="312.68" y="295.52" width=".05" height="13.65"/><rect class="cls-41" x="311.81" y="295.51" width="4.41" height="13.65"/><rect class="cls-41" x="301.16" y="295.51" width="4.41" height="13.65"/><rect class="cls-41" x="311.1" y="295.52" width="1.58" height="13.65"/><rect class="cls-41" x="316.99" y="295.52" width="1.58" height="13.65"/><rect class="cls-34" x="312.73" y="295.51" width=".54" height="13.65"/></svg>